<svg id="b870de02-f739-4867-805a-a2e0b56a46f3" data-name="Calque 2" xmlns="http://www.w3.org/2000/svg" xmlns:xlink="http://www.w3.org/1999/xlink" viewBox="0 0 127.99 128"><defs><linearGradient id="b94f3914-0da7-4455-ac1e-8d9761c966a4" x1="0.01" y1="63.96" x2="127.99" y2="63.96" gradientUnits="userSpaceOnUse"><stop offset="0" stop-color="#eb1534"/><stop offset="1" stop-color="#9a26af"/></linearGradient><linearGradient id="b6002d73-2828-466f-9e51-991143bc7720" x1="63.99" y1="111.93" x2="95.99" y2="111.93" gradientUnits="userSpaceOnUse"><stop offset="0" stop-color="#fff" stop-opacity="0"/><stop offset="0.5" stop-color="gray" stop-opacity="0.1"/><stop offset="0.72" stop-color="#2a2a2a" stop-opacity="0.44"/><stop offset="1" stop-opacity="0.6"/></linearGradient></defs><title>near-me</title><path d="M128,64v63.94H64A64,64,0,1,1,128,64Z" transform="translate(-0.01 0)" style="fill:url(#b94f3914-0da7-4455-ac1e-8d9761c966a4)"/><path d="M64,22.32a42.18,42.18,0,1,0,0,84.36H96V128h10.19V64.51A42.24,42.24,0,0,0,64,22.32Zm0,73.61A32,32,0,1,1,96,64v32Z" transform="translate(-0.01 0)" style="fill:#fff"/><path d="M88.54,118.09H80.49v-2.81h8.05Zm-16.1,0h-8v-2.81h8Zm-16.26-.56a53.71,53.71,0,0,1-8-1.8L49,113a52,52,0,0,0,7.63,1.71Zm-15.72-4.81a54.45,54.45,0,0,1-7.13-4.14l1.59-2.32a52.41,52.41,0,0,0,6.76,3.93Zm77.69-8.25h-2.81v-8h2.81ZM26.91,103.4a54.34,54.34,0,0,1-5.56-6.09l2.21-1.73a51.54,51.54,0,0,0,5.28,5.77ZM16.77,90.46A54.46,54.46,0,0,1,13.29,83l2.64-1a51.65,51.65,0,0,0,3.29,7.08Zm101.38-2.09h-2.81v-8h2.81ZM11,75.07A55.67,55.67,0,0,1,9.93,66.9l2.81-.15a51.69,51.69,0,0,0,1,7.75Zm107.16-2.79h-2.81v-8h2.81ZM12.91,58.93l-2.8-.27a52.85,52.85,0,0,1,1.42-8.12l2.73.69A50.24,50.24,0,0,0,12.91,58.93Zm101.88-2.51a51.21,51.21,0,0,0-1.73-7.62l2.69-.83A55.16,55.16,0,0,1,117.57,56Zm-98-12.59-2.59-1.11A54.54,54.54,0,0,1,18,35.41l2.39,1.49A51.19,51.19,0,0,0,16.77,43.83Zm93.42-2.29a51,51,0,0,0-4-6.74l2.31-1.61a54.46,54.46,0,0,1,4.16,7.12ZM25,30.59l-2.14-1.83a54.39,54.39,0,0,1,5.83-5.83l1.83,2.13A50.57,50.57,0,0,0,25,30.59Zm76.3-1.86a51.46,51.46,0,0,0-5.78-5.26l1.73-2.22a54.35,54.35,0,0,1,6.1,5.55Zm-64.49-8.3L35.33,18a54.54,54.54,0,0,1,7.3-3.82l1.11,2.59A49.56,49.56,0,0,0,36.82,20.43ZM89,19.15a51.23,51.23,0,0,0-7.09-3.29l1-2.63a54.59,54.59,0,0,1,7.49,3.46ZM51.14,14.28l-.71-2.73a54.58,54.58,0,0,1,8.12-1.44l.28,2.8A51.18,51.18,0,0,0,51.14,14.28Zm23.26-.57a50.39,50.39,0,0,0-7.75-1l.14-2.81A55,55,0,0,1,75,11Z" transform="translate(-0.01 0)" style="fill:#fff"/><rect x="115.33" y="112.66" width="2.81" height="8.05" style="fill:#fff"/><rect x="63.99" y="95.93" width="32" height="32" style="fill:url(#b6002d73-2828-466f-9e51-991143bc7720)"/></svg>