<?xml version="1.0" encoding="utf-8"?>
<!-- Generator: Adobe Illustrator 23.0.3, SVG Export Plug-In . SVG Version: 6.00 Build 0)  -->
<svg version="1.1" xmlns="http://www.w3.org/2000/svg" xmlns:xlink="http://www.w3.org/1999/xlink" x="0px" y="0px"
	 viewBox="0 0 668.2 258.25" style="enable-background:new 0 0 668.2 258.25;" xml:space="preserve">
<style type="text/css">
	.st0{fill:url(#SVGID_1_);}
	.st1{fill:#FFFFFF;}
	.st2{fill:url(#SVGID_2_);}
	.st3{fill:url(#SVGID_3_);}
	.st4{fill:url(#SVGID_4_);}
	.st5{fill:url(#SVGID_5_);}
	.st6{fill:url(#SVGID_6_);}
	.st7{fill:url(#SVGID_7_);}
	.st8{opacity:0.29;fill:url(#SVGID_8_);}
	.st9{fill:url(#SVGID_9_);}
	.st10{fill:url(#SVGID_10_);}
</style>
<g id="Calque_4">
	<linearGradient id="SVGID_1_" gradientUnits="userSpaceOnUse" x1="16.5654" y1="112.5593" x2="668.199" y2="112.5593">
		<stop  offset="0" style="stop-color:#E81639"/>
		<stop  offset="0.5" style="stop-color:#9A26AF"/>
		<stop  offset="1" style="stop-color:#4BECD9"/>
	</linearGradient>
	<path class="st0" d="M663.92,122.88c-1.17-7.19-6.24-13.05-13.22-15.31c-79.33-25.67-163.35-33.35-179.4-34.62
		c-0.95-0.07-1.84-0.39-2.64-0.91c-18.73-12.39-81.91-53.59-108.54-63.72c-58.87-22.4-176.1,0.71-339.01,66.84l-1.92,0.79
		c-0.91,0.36-1.77,0.8-2.61,1.3h36.4c30.13-11.78,75.7-28.57,124.03-41.98c82.65-22.91,142.61-27.65,178.24-14.1
		c25.96,9.87,92.72,53.66,105.84,62.35c2.73,1.8,5.89,2.89,9.14,3.15c15.77,1.25,98.39,8.8,176.26,34c2.05,0.66,3.54,2.36,3.88,4.45
		c5.54,33.95,5.46,60.16-0.2,68.42c-3.84,5.59-23.71,10.6-41.66,14.48c-2.21,3.76-4.9,7.34-8.08,10.61l-6.27,6.5
		c13.65-2.5,57.75-9.81,67.35-23.81C671.64,186.48,668.42,150.48,663.92,122.88z"/>
</g>
<g id="Calque_9">
	<g>
		<g>
			<path class="st1" d="M0,90.84h39.06c5.29,0,10.35,1.03,15.17,3.08c4.82,2.06,8.97,4.83,12.45,8.33c3.48,3.5,6.25,7.66,8.3,12.48
				c2.05,4.82,3.08,9.88,3.08,15.17c0,5.29-1.03,10.35-3.08,15.17c-2.06,4.82-4.82,8.97-8.3,12.45s-7.63,6.25-12.45,8.3
				c-4.82,2.06-9.88,3.08-15.17,3.08H14.71v63.54H0V90.84z M45.92,105.49c0,0-31.21,0-31.21,0v48.83l31.21,0
				c11.74-5.69,17.62-13.83,17.62-24.41C63.54,119.32,57.66,111.18,45.92,105.49z"/>
		</g>
		<path class="st1" d="M284.16,236.01h-14.53l-24.48-24.41l-24.35,24.41h-14.71v-78.13h14.71v56.15l24.35-24.41l24.48,24.41v-56.15
			h14.53V236.01z"/>
		<path class="st1" d="M314.74,204.52v31.74h-14.71V94.65h14.71v95.21h24.35c6.75,0,12.52-2.38,17.3-7.14
			c4.78-4.76,7.17-10.52,7.17-17.27v-7.32h14.53v7.32c0,6.43-1.46,12.41-4.36,17.94c-2.91,5.53-6.87,10.11-11.87,13.73
			c5,3.62,8.96,8.22,11.87,13.79c2.91,5.57,4.36,11.58,4.36,18.01v7.32h-14.53v-7.32c0-6.75-2.39-12.51-7.17-17.27
			c-4.78-4.76-10.55-7.14-17.3-7.14H314.74z"/>
		<path class="st1" d="M472.02,236.01h-39c-5.29,0-10.35-1.04-15.17-3.11s-8.97-4.85-12.45-8.33s-6.26-7.63-8.33-12.45
			s-3.11-9.88-3.11-15.17c0-6.79,1.62-13.1,4.85-18.92c3.23-5.82,7.66-10.51,13.28-14.07c5.62-3.56,11.78-5.54,18.49-5.95v-0.12
			h18.37c6.39,0,11.83,2.26,16.33,6.77s6.74,9.99,6.74,16.42c0,6.43-2.25,11.9-6.74,16.42s-9.94,6.77-16.33,6.77h-39.18
			c1.59,5,4.51,9.11,8.76,12.3c4.25,3.19,9.08,4.79,14.5,4.79h39V236.01z M409.77,189.62h39.18c2.36,0,4.37-0.83,6.04-2.5
			c1.67-1.67,2.5-3.68,2.5-6.04c0-2.36-0.83-4.37-2.5-6.04c-1.67-1.67-3.68-2.5-6.04-2.5h-15.93c-5.41,0-10.24,1.6-14.5,4.79
			C414.27,180.52,411.35,184.62,409.77,189.62z"/>
	</g>
	<linearGradient id="SVGID_2_" gradientUnits="userSpaceOnUse" x1="408.7668" y1="196.9485" x2="427.9178" y2="196.9485">
		<stop  offset="0" style="stop-color:#000000;stop-opacity:0.6"/>
		<stop  offset="1" style="stop-color:#FFFFFF;stop-opacity:0"/>
	</linearGradient>
	<path class="st2" d="M409.77,204.27h18.15v-14.65h-18.15c0,0-1,2.95-1,7.32C408.77,201.38,409.77,204.27,409.77,204.27z"/>
	<linearGradient id="SVGID_3_" gradientUnits="userSpaceOnUse" x1="14.7095" y1="161.6437" x2="33.8604" y2="161.6437">
		<stop  offset="0" style="stop-color:#000000;stop-opacity:0.6"/>
		<stop  offset="1" style="stop-color:#FFFFFF;stop-opacity:0"/>
	</linearGradient>
	<path class="st3" d="M14.71,168.91l19.15,0.06v-14.65l-19.15,0c0,0,0,2.95,0,7.32C14.71,166.08,14.71,168.91,14.71,168.91z"/>
	
		<linearGradient id="SVGID_4_" gradientUnits="userSpaceOnUse" x1="262.4397" y1="212.6386" x2="275.6104" y2="212.6386" gradientTransform="matrix(-1 0 0 -1 532.0698 431.0374)">
		<stop  offset="0" style="stop-color:#000000;stop-opacity:0.6"/>
		<stop  offset="1" style="stop-color:#FFFFFF;stop-opacity:0"/>
	</linearGradient>
	<polygon class="st4" points="269.63,214.04 256.46,200.79 256.46,222.84 269.63,236.01 	"/>
	
		<linearGradient id="SVGID_5_" gradientUnits="userSpaceOnUse" x1="248.8147" y1="212.6429" x2="261.9854" y2="212.6429" gradientTransform="matrix(1 0 0 -1 -27.9802 431.0374)">
		<stop  offset="0" style="stop-color:#000000;stop-opacity:0.6"/>
		<stop  offset="1" style="stop-color:#FFFFFF;stop-opacity:0"/>
	</linearGradient>
	<polygon class="st5" points="220.83,214.03 234.01,200.78 234.01,222.84 220.83,236.01 	"/>
	
		<linearGradient id="SVGID_6_" gradientUnits="userSpaceOnUse" x1="162.6703" y1="218.0576" x2="176.3037" y2="241.6714" gradientTransform="matrix(1 0 0 1 188.0198 -20.2398)">
		<stop  offset="0" style="stop-color:#000000;stop-opacity:0.6"/>
		<stop  offset="1" style="stop-color:#FFFFFF;stop-opacity:0"/>
	</linearGradient>
	<path class="st6" d="M339.09,204.52c0,0,8.44-0.35,15.56,5.46c5.98,4.88,7.68,11.08,7.68,11.08l13.21-6.11
		c0,0-2.33-5.86-5.71-10.11c-3.23-4.07-7.98-7.71-7.98-7.71s-4.35,3.28-9.45,5.03C346.51,204.18,339.09,204.52,339.09,204.52z"/>
</g>
<g id="Calque_6">
	<linearGradient id="SVGID_7_" gradientUnits="userSpaceOnUse" x1="485.3745" y1="189.6249" x2="599.0519" y2="189.6249">
		<stop  offset="0" style="stop-color:#9A26AF"/>
		<stop  offset="1" style="stop-color:#4BECD9"/>
	</linearGradient>
	<path class="st7" d="M596.84,193.63c-2.58,8.95-7.39,17.4-14.42,24.44l-40.17,40.18l-40.21-40.21
		c-22.19-22.17-22.2-58.24-0.04-80.4c22.17-22.17,58.25-22.17,80.43,0C597.55,152.77,602.36,174.38,596.84,193.63z"/>
	<g id="Calque_13">
		<linearGradient id="SVGID_8_" gradientUnits="userSpaceOnUse" x1="540.0863" y1="179.2231" x2="584.1786" y2="216.221">
			<stop  offset="0" style="stop-color:#000000;stop-opacity:0.8"/>
			<stop  offset="0.2833" style="stop-color:#030303;stop-opacity:0.7056"/>
			<stop  offset="0.4534" style="stop-color:#0B0B0B;stop-opacity:0.6489"/>
			<stop  offset="0.5935" style="stop-color:#191919;stop-opacity:0.6022"/>
			<stop  offset="0.6" style="stop-color:#1A1A1A;stop-opacity:0.6"/>
			<stop  offset="0.6431" style="stop-color:#1F1F1F;stop-opacity:0.5353"/>
			<stop  offset="0.6958" style="stop-color:#2E2E2E;stop-opacity:0.4562"/>
			<stop  offset="0.7535" style="stop-color:#474747;stop-opacity:0.3697"/>
			<stop  offset="0.8148" style="stop-color:#6A6A6A;stop-opacity:0.2777"/>
			<stop  offset="0.879" style="stop-color:#969696;stop-opacity:0.1815"/>
			<stop  offset="0.9444" style="stop-color:#CCCCCC;stop-opacity:0.0833"/>
			<stop  offset="1" style="stop-color:#FFFFFF;stop-opacity:0"/>
		</linearGradient>
		<path class="st8" d="M597.41,191.49c-2.58,8.95-7.96,19.54-15,26.58l-19.21,19.21l-40.45-37.4l40.16-40.18L597.41,191.49z"/>
	</g>
	<g id="Calque_11">
		<circle class="st1" cx="542.21" cy="179.16" r="28.43"/>
	</g>
</g>
<g id="Calque_5">
	<linearGradient id="SVGID_9_" gradientUnits="userSpaceOnUse" x1="76.2779" y1="179.1561" x2="190.0279" y2="179.1561">
		<stop  offset="0" style="stop-color:#EB1534"/>
		<stop  offset="1" style="stop-color:#9A26AF"/>
	</linearGradient>
	<path class="st9" d="M190.03,179.18v56.82h-56.88c-31.35,0-56.88-25.49-56.88-56.82c0-31.36,25.52-56.87,56.88-56.87
		C164.52,122.31,190.03,147.82,190.03,179.18z"/>
	<g id="Calque_8">
		<path class="st1" d="M133.15,142.14c-20.67,0-37.5,16.83-37.5,37.5c0,20.66,16.83,37.47,37.5,37.47h28.44v18.95h9.06v-56.43
			C170.65,158.97,153.83,142.14,133.15,142.14z M133.15,207.57c-15.67,0-28.44-12.74-28.44-28.4c0-15.67,12.76-28.42,28.44-28.42
			c15.69,0,28.44,12.75,28.44,28.42v28.4H133.15z"/>
		<g>
			<path class="st1" d="M154.96,227.26h-7.15v-2.5h7.15V227.26z M140.66,227.26h-7.15v-2.5h7.15V227.26z M126.21,226.76
				c-2.42-0.35-4.82-0.89-7.15-1.6l0.73-2.39c2.21,0.68,4.49,1.19,6.78,1.52L126.21,226.76z M112.23,222.49
				c-2.19-1.06-4.32-2.3-6.34-3.68l1.42-2.06c1.91,1.31,3.93,2.49,6.01,3.49L112.23,222.49z M181.28,215.16h-2.5V208h2.5V215.16z
				 M100.19,214.2c-1.78-1.67-3.44-3.49-4.94-5.41l1.97-1.54c1.43,1.82,3,3.54,4.69,5.13L100.19,214.2z M91.18,202.7
				c-1.2-2.13-2.24-4.36-3.09-6.64l2.34-0.88c0.81,2.16,1.8,4.28,2.93,6.29L91.18,202.7z M181.28,200.85h-2.5v-7.15h2.5V200.85z
				 M86.04,189.03c-0.5-2.38-0.81-4.82-0.95-7.26l2.5-0.13c0.12,2.32,0.43,4.63,0.9,6.89L86.04,189.03z M181.28,186.55h-2.5v-7.15
				h2.5V186.55z M87.74,174.68l-2.49-0.24c0.24-2.43,0.66-4.86,1.26-7.22l2.42,0.62C88.37,170.08,87.97,172.38,87.74,174.68z
				 M178.29,172.45c-0.34-2.29-0.85-4.57-1.54-6.77l2.39-0.74c0.72,2.33,1.26,4.73,1.62,7.15L178.29,172.45z M91.17,161.26
				l-2.3-0.98c0.96-2.24,2.1-4.43,3.39-6.5l2.12,1.32C93.16,157.06,92.08,159.13,91.17,161.26z M174.2,159.22
				c-1.01-2.08-2.19-4.09-3.51-5.99l2.05-1.42c1.39,2,2.63,4.13,3.7,6.32L174.2,159.22z M98.5,149.5l-1.9-1.63
				c1.59-1.85,3.33-3.6,5.18-5.18l1.63,1.89C101.66,146.08,100,147.74,98.5,149.5z M166.32,147.84c-1.59-1.68-3.32-3.25-5.14-4.67
				l1.54-1.97c1.93,1.5,3.75,3.16,5.42,4.93L166.32,147.84z M109,140.46l-1.33-2.12c2.08-1.3,4.26-2.44,6.49-3.4l0.99,2.3
				C113.03,138.15,110.96,139.23,109,140.46z M155.38,139.32c-2.02-1.13-4.14-2.11-6.31-2.92l0.87-2.34
				c2.29,0.85,4.53,1.89,6.66,3.08L155.38,139.32z M121.72,135l-0.63-2.42c2.36-0.61,4.79-1.04,7.21-1.28l0.25,2.49
				C126.26,134.01,123.96,134.42,121.72,135z M142.4,134.49c-2.26-0.47-4.58-0.76-6.89-0.88l0.13-2.5c2.44,0.12,4.88,0.43,7.27,0.93
				L142.4,134.49z"/>
			<rect x="178.78" y="222.43" class="st1" width="2.5" height="7.15"/>
		</g>
	</g>
	<g id="Calque_12">
		<linearGradient id="SVGID_10_" gradientUnits="userSpaceOnUse" x1="133.1529" y1="221.7873" x2="161.5904" y2="221.7873">
			<stop  offset="0" style="stop-color:#FFFFFF;stop-opacity:0"/>
			<stop  offset="0.5" style="stop-color:#808080;stop-opacity:0.1"/>
			<stop  offset="0.552" style="stop-color:#676767;stop-opacity:0.152"/>
			<stop  offset="0.6433" style="stop-color:#424242;stop-opacity:0.2433"/>
			<stop  offset="0.7347" style="stop-color:#252525;stop-opacity:0.3347"/>
			<stop  offset="0.8252" style="stop-color:#111111;stop-opacity:0.4252"/>
			<stop  offset="0.9141" style="stop-color:#040404;stop-opacity:0.5141"/>
			<stop  offset="1" style="stop-color:#000000;stop-opacity:0.6"/>
		</linearGradient>
		<rect x="133.15" y="207.57" class="st10" width="28.44" height="28.44"/>
	</g>
</g>
</svg>
